<svg xmlns="http://www.w3.org/2000/svg" width="512" height="512" viewBox="0 0 960 960" role="img" aria-label="Battery Monitor app icon">
  <circle cx="480" cy="480" r="480" fill="#03A9F4"/>
  <g transform="translate(158.4 158.4) scale(0.67)">
    <g transform="translate(3 -5) scale(1.01)">
      <path fill="#000" fill-opacity="0.3" d="M320,880Q303,880 291.5,868.5Q280,857 280,840L280,200Q280,183 291.5,171.5Q303,160 320,160L400,160L400,80L560,80L560,160L640,160Q657,160 668.5,171.5Q680,183 680,200L680,840Q680,857 668.5,868.5Q657,880 640,880L320,880Z"/>
    </g>
    <path fill="#fff" d="M320,880Q303,880 291.5,868.5Q280,857 280,840L280,200Q280,183 291.5,171.5Q303,160 320,160L400,160L400,80L560,80L560,160L640,160Q657,160 668.5,171.5Q680,183 680,200L680,840Q680,857 668.5,868.5Q657,880 640,880L320,880Z"/>
  </g>
</svg>
